<svg width="10" height="16" viewBox="0 0 10 16" fill="none" xmlns="http://www.w3.org/2000/svg">
<path fill-rule="evenodd" clip-rule="evenodd" d="M9.05998 6.94001C9.34088 7.22126 9.49866 7.60251 9.49866 8.00001C9.49866 8.39751 9.34088 8.77876 9.05998 9.06001L3.40398 14.718C3.12258 14.9993 2.74098 15.1572 2.34312 15.1571C2.14612 15.1571 1.95106 15.1182 1.76908 15.0428C1.58709 14.9674 1.42174 14.8568 1.28248 14.7175C1.14321 14.5782 1.03275 14.4128 0.957405 14.2308C0.882059 14.0487 0.843303 13.8537 0.843349 13.6567C0.843396 13.4597 0.882245 13.2646 0.957676 13.0826C1.03311 12.9006 1.14364 12.7353 1.28298 12.596L5.87798 8.00001L1.28198 3.40401C1.13865 3.2657 1.0243 3.10024 0.945598 2.91727C0.866899 2.73431 0.82543 2.5375 0.823605 2.33833C0.821781 2.13916 0.859641 1.94162 0.934975 1.75724C1.01031 1.57287 1.12161 1.40534 1.26238 1.26443C1.40315 1.12353 1.57058 1.01207 1.75489 0.93656C1.93919 0.861052 2.13669 0.823006 2.33586 0.824643C2.53503 0.826279 2.73188 0.867564 2.91492 0.946089C3.09797 1.02461 3.26354 1.13881 3.40198 1.28201L9.06198 6.94001L9.05998 6.94001Z" fill="white"/>
</svg>
