<svg width="15" height="10" viewBox="0 0 15 10" fill="none" xmlns="http://www.w3.org/2000/svg">
<path fill-rule="evenodd" clip-rule="evenodd" d="M8.88461 8.89897C8.60336 9.17987 8.22211 9.33765 7.82461 9.33765C7.42711 9.33765 7.04586 9.17987 6.76461 8.89897L1.10661 3.24297C0.825345 2.96157 0.667386 2.57997 0.66748 2.18211C0.667527 1.98511 0.706374 1.79005 0.781806 1.60807C0.857237 1.42608 0.967774 1.26073 1.10711 1.12147C1.24644 0.9822 1.41184 0.87174 1.59386 0.796394C1.77588 0.721048 1.97096 0.682292 2.16796 0.682339C2.36496 0.682385 2.56002 0.721234 2.74201 0.796665C2.92399 0.872096 3.08934 0.982633 3.22861 1.12197L7.82461 5.71697L12.4206 1.12097C12.5589 0.977637 12.7244 0.863285 12.9073 0.784587C13.0903 0.705889 13.2871 0.66442 13.4863 0.662595C13.6855 0.660771 13.883 0.698631 14.0674 0.773965C14.2518 0.8493 14.4193 0.960599 14.5602 1.10137C14.7011 1.24214 14.8125 1.40957 14.8881 1.59388C14.9636 1.77818 15.0016 1.97568 15 2.17485C14.9983 2.37402 14.9571 2.57087 14.8785 2.75391C14.8 2.93696 14.6858 3.10253 14.5426 3.24097L8.88461 8.90097L8.88461 8.89897Z" fill="#2F5DD3"/>
</svg>
