<svg width="10" height="16" viewBox="0 0 10 16" fill="none" xmlns="http://www.w3.org/2000/svg">
<path fill-rule="evenodd" clip-rule="evenodd" d="M0.940023 9.06001C0.659122 8.77876 0.501343 8.39751 0.501343 8.00001C0.501343 7.60251 0.659122 7.22126 0.940023 6.94001L6.59602 1.28201C6.87742 1.00075 7.25902 0.842787 7.65688 0.84288C7.85388 0.842927 8.04894 0.881774 8.23092 0.957206C8.41291 1.03264 8.57826 1.14317 8.71752 1.28251C8.85679 1.42184 8.96725 1.58724 9.04259 1.76926C9.11794 1.95128 9.1567 2.14636 9.15665 2.34336C9.1566 2.54036 9.11775 2.73542 9.04232 2.91741C8.96689 3.09939 8.85636 3.26474 8.71702 3.40401L4.12202 8.00001L8.71802 12.596C8.86135 12.7343 8.9757 12.8998 9.0544 13.0827C9.1331 13.2657 9.17457 13.4625 9.17639 13.6617C9.17822 13.8609 9.14036 14.0584 9.06502 14.2428C8.98969 14.4272 8.87839 14.5947 8.73762 14.7356C8.59685 14.8765 8.42942 14.9879 8.24511 15.0635C8.0608 15.139 7.8633 15.177 7.66413 15.1754C7.46497 15.1737 7.26812 15.1325 7.08507 15.0539C6.90203 14.9754 6.73646 14.8612 6.59802 14.718L0.938023 9.06001H0.940023Z" fill="#2F5DD3"/>
</svg>
