<svg width="164" height="51" viewBox="0 0 164 51" fill="none" xmlns="http://www.w3.org/2000/svg">
<path fill-rule="evenodd" clip-rule="evenodd" d="M148.746 24.0201L163.628 22.3256L148.746 20.6311C137.47 19.3473 127.884 11.8111 123.975 1.15733L123.551 -1.75183e-06L123.126 1.15733C120.99 6.98067 117.157 11.8726 112.279 15.3211C107.401 11.8726 103.569 6.98067 101.432 1.15733L101.007 -2.73723e-06L100.583 1.15733C96.6738 11.8111 87.088 19.3473 75.8126 20.6311L60.9303 22.3256L75.8126 24.0201C87.088 25.3039 96.6738 32.8401 100.583 43.4938L101.007 44.6512L101.432 43.4938C103.569 37.6705 107.401 32.7786 112.279 29.3301C117.157 32.7786 120.99 37.6705 123.126 43.4938L123.551 44.6512L123.975 43.4938C127.884 32.8401 137.47 25.3039 148.746 24.0201Z" fill="#2F5DD3"/>
<mask id="path-2-outside-1_3_13" maskUnits="userSpaceOnUse" x="0" y="18.2093" width="136" height="33" fill="black">
<rect fill="white" y="18.2093" width="136" height="33"/>
<path d="M13.7551 48C11.0772 48 8.91342 47.4501 7.26366 46.3502C5.6139 45.2265 4.52601 43.6963 4 41.7596L9.70244 38.8187C10.3719 40.8989 11.9021 41.9389 14.2931 41.9389C16.2537 41.9389 17.3416 41.3651 17.5567 40.2174C17.7002 39.4284 17.1503 38.7709 15.907 38.2449C15.7157 38.1493 14.843 37.8384 13.2889 37.3124C11.0892 36.5712 9.42748 35.567 8.30373 34.2998C7.17998 33.0326 6.80938 31.2992 7.19193 29.0995C7.59839 26.8041 8.68628 25.0229 10.4556 23.7557C12.2488 22.4646 14.3648 21.819 16.8036 21.819C18.9076 21.819 20.7128 22.3211 22.2191 23.3253C23.7493 24.3056 24.8731 25.7163 25.5904 27.5573L20.1031 30.4982C19.3141 28.7528 18.0469 27.8801 16.3015 27.8801C14.7952 27.8801 13.9344 28.418 13.7192 29.494C13.5758 30.0917 13.791 30.5938 14.3648 31.0003C14.9386 31.3828 16.0146 31.8491 17.5926 32.399C18.6924 32.7815 19.5891 33.1402 20.2824 33.4749C20.9758 33.8097 21.6931 34.2998 22.4343 34.9454C23.1994 35.567 23.7135 36.368 23.9765 37.3483C24.2395 38.3047 24.2634 39.4404 24.0482 40.7554C23.6178 43.1224 22.4941 44.9276 20.6769 46.1709C18.8598 47.3903 16.5525 48 13.7551 48Z"/>
<path d="M34.5167 47.9641C31.6475 47.9641 29.4239 47.0197 27.8459 45.1308C26.2679 43.242 25.694 40.9108 26.1244 38.1373C26.5548 35.4833 27.7742 33.3076 29.7826 31.61C31.791 29.8885 34.1341 29.0277 36.812 29.0277C38.7008 29.0277 40.2908 29.4581 41.582 30.3189C42.897 31.1557 43.8773 32.2914 44.5228 33.726L39.1073 36.5593C38.5813 35.4116 37.6488 34.8378 36.3099 34.8378C35.2579 34.8378 34.3254 35.1725 33.5125 35.842C32.7234 36.5114 32.2453 37.3841 32.0779 38.4601C31.8866 39.536 32.0659 40.4207 32.6159 41.114C33.1897 41.8074 33.9787 42.1541 34.9829 42.1541C36.3697 42.1541 37.4815 41.5564 38.3183 40.3609L43.0524 43.3735C42.1438 44.8798 40.9364 46.0275 39.4301 46.8165C37.9238 47.5816 36.286 47.9641 34.5167 47.9641Z"/>
<path d="M50.4587 28.0594C49.5262 28.0594 48.773 27.7247 48.1992 27.0552C47.6254 26.3618 47.4221 25.5489 47.5895 24.6164C47.733 23.7079 48.1873 22.9188 48.9524 22.2494C49.7175 21.556 50.5902 21.2093 51.5705 21.2093C52.5268 21.2093 53.28 21.544 53.8299 22.2135C54.4037 22.883 54.607 23.6839 54.4396 24.6164C54.2962 25.5728 53.8419 26.3857 53.0768 27.0552C52.3117 27.7247 51.439 28.0594 50.4587 28.0594ZM44.0031 47.462L47.1591 29.5298H53.1126L49.9566 47.462H44.0031Z"/>
<path d="M64.831 29.0277C67.5328 29.0277 69.6488 29.9483 71.179 31.7893C72.7093 33.6064 73.2353 35.83 72.7571 38.4601C72.6614 39.1774 72.4582 39.9186 72.1474 40.6837H59.8459C60.1806 42.1422 61.3283 42.8714 63.2889 42.8714C64.7234 42.8714 65.907 42.441 66.8394 41.5803L70.6411 45.0591C68.5609 46.9958 65.9548 47.9641 62.8226 47.9641C59.7144 47.9641 57.3712 47.0197 55.7932 45.1308C54.2391 43.242 53.6892 40.9108 54.1435 38.1373C54.5738 35.5072 55.7932 33.3315 57.8016 31.61C59.81 29.8885 62.1532 29.0277 64.831 29.0277ZM60.5632 36.5234H67.3415C67.222 34.8736 66.2776 34.0488 64.5083 34.0488C62.739 34.0488 61.4239 34.8736 60.5632 36.5234Z"/>
<path d="M87.6562 29.0277C89.5929 29.0277 91.0753 29.7092 92.1034 31.072C93.1554 32.4109 93.4782 34.2998 93.0717 36.7386L91.1709 47.462H85.2174L86.9748 37.4917C87.1182 36.5354 86.9867 35.83 86.5803 35.3757C86.1738 34.8975 85.5641 34.6585 84.7512 34.6585C83.8426 34.6585 83.0775 34.9334 82.4559 35.4833C81.8581 36.0333 81.4636 36.8462 81.2723 37.9221V37.8862L79.5867 47.462H73.6332L76.7893 29.5298H82.7428L82.42 31.3589C83.7828 29.8048 85.5282 29.0277 87.6562 29.0277Z"/>
<path d="M103.514 47.9641C100.644 47.9641 98.4208 47.0197 96.8428 45.1308C95.2648 43.242 94.6909 40.9108 95.1213 38.1373C95.5517 35.4833 96.7711 33.3076 98.7795 31.61C100.788 29.8885 103.131 29.0277 105.809 29.0277C107.698 29.0277 109.288 29.4581 110.579 30.3189C111.894 31.1557 112.874 32.2914 113.52 33.726L108.104 36.5593C107.578 35.4116 106.646 34.8378 105.307 34.8378C104.255 34.8378 103.322 35.1725 102.509 35.842C101.72 36.5114 101.242 37.3841 101.075 38.4601C100.884 39.536 101.063 40.4207 101.613 41.114C102.187 41.8074 102.976 42.1541 103.98 42.1541C105.367 42.1541 106.478 41.5564 107.315 40.3609L112.049 43.3735C111.141 44.8798 109.933 46.0275 108.427 46.8165C106.921 47.5816 105.283 47.9641 103.514 47.9641Z"/>
<path d="M124.372 29.0277C127.073 29.0277 129.189 29.9483 130.72 31.7893C132.25 33.6064 132.776 35.83 132.298 38.4601C132.202 39.1774 131.999 39.9186 131.688 40.6837H119.386C119.721 42.1422 120.869 42.8714 122.829 42.8714C124.264 42.8714 125.447 42.441 126.38 41.5803L130.182 45.0591C128.101 46.9958 125.495 47.9641 122.363 47.9641C119.255 47.9641 116.912 47.0197 115.334 45.1308C113.78 43.242 113.23 40.9108 113.684 38.1373C114.114 35.5072 115.334 33.3315 117.342 31.61C119.351 29.8885 121.694 29.0277 124.372 29.0277ZM120.104 36.5234H126.882C126.762 34.8736 125.818 34.0488 124.049 34.0488C122.279 34.0488 120.964 34.8736 120.104 36.5234Z"/>
</mask>
<path d="M13.7551 48C11.0772 48 8.91342 47.4501 7.26366 46.3502C5.6139 45.2265 4.52601 43.6963 4 41.7596L9.70244 38.8187C10.3719 40.8989 11.9021 41.9389 14.2931 41.9389C16.2537 41.9389 17.3416 41.3651 17.5567 40.2174C17.7002 39.4284 17.1503 38.7709 15.907 38.2449C15.7157 38.1493 14.843 37.8384 13.2889 37.3124C11.0892 36.5712 9.42748 35.567 8.30373 34.2998C7.17998 33.0326 6.80938 31.2992 7.19193 29.0995C7.59839 26.8041 8.68628 25.0229 10.4556 23.7557C12.2488 22.4646 14.3648 21.819 16.8036 21.819C18.9076 21.819 20.7128 22.3211 22.2191 23.3253C23.7493 24.3056 24.8731 25.7163 25.5904 27.5573L20.1031 30.4982C19.3141 28.7528 18.0469 27.8801 16.3015 27.8801C14.7952 27.8801 13.9344 28.418 13.7192 29.494C13.5758 30.0917 13.791 30.5938 14.3648 31.0003C14.9386 31.3828 16.0146 31.8491 17.5926 32.399C18.6924 32.7815 19.5891 33.1402 20.2824 33.4749C20.9758 33.8097 21.6931 34.2998 22.4343 34.9454C23.1994 35.567 23.7135 36.368 23.9765 37.3483C24.2395 38.3047 24.2634 39.4404 24.0482 40.7554C23.6178 43.1224 22.4941 44.9276 20.6769 46.1709C18.8598 47.3903 16.5525 48 13.7551 48Z" fill="#242A38"/>
<path d="M34.5167 47.9641C31.6475 47.9641 29.4239 47.0197 27.8459 45.1308C26.2679 43.242 25.694 40.9108 26.1244 38.1373C26.5548 35.4833 27.7742 33.3076 29.7826 31.61C31.791 29.8885 34.1341 29.0277 36.812 29.0277C38.7008 29.0277 40.2908 29.4581 41.582 30.3189C42.897 31.1557 43.8773 32.2914 44.5228 33.726L39.1073 36.5593C38.5813 35.4116 37.6488 34.8378 36.3099 34.8378C35.2579 34.8378 34.3254 35.1725 33.5125 35.842C32.7234 36.5114 32.2453 37.3841 32.0779 38.4601C31.8866 39.536 32.0659 40.4207 32.6159 41.114C33.1897 41.8074 33.9787 42.1541 34.9829 42.1541C36.3697 42.1541 37.4815 41.5564 38.3183 40.3609L43.0524 43.3735C42.1438 44.8798 40.9364 46.0275 39.4301 46.8165C37.9238 47.5816 36.286 47.9641 34.5167 47.9641Z" fill="#242A38"/>
<path d="M50.4587 28.0594C49.5262 28.0594 48.773 27.7247 48.1992 27.0552C47.6254 26.3618 47.4221 25.5489 47.5895 24.6164C47.733 23.7079 48.1873 22.9188 48.9524 22.2494C49.7175 21.556 50.5902 21.2093 51.5705 21.2093C52.5268 21.2093 53.28 21.544 53.8299 22.2135C54.4037 22.883 54.607 23.6839 54.4396 24.6164C54.2962 25.5728 53.8419 26.3857 53.0768 27.0552C52.3117 27.7247 51.439 28.0594 50.4587 28.0594ZM44.0031 47.462L47.1591 29.5298H53.1126L49.9566 47.462H44.0031Z" fill="#242A38"/>
<path d="M64.831 29.0277C67.5328 29.0277 69.6488 29.9483 71.179 31.7893C72.7093 33.6064 73.2353 35.83 72.7571 38.4601C72.6614 39.1774 72.4582 39.9186 72.1474 40.6837H59.8459C60.1806 42.1422 61.3283 42.8714 63.2889 42.8714C64.7234 42.8714 65.907 42.441 66.8394 41.5803L70.6411 45.0591C68.5609 46.9958 65.9548 47.9641 62.8226 47.9641C59.7144 47.9641 57.3712 47.0197 55.7932 45.1308C54.2391 43.242 53.6892 40.9108 54.1435 38.1373C54.5738 35.5072 55.7932 33.3315 57.8016 31.61C59.81 29.8885 62.1532 29.0277 64.831 29.0277ZM60.5632 36.5234H67.3415C67.222 34.8736 66.2776 34.0488 64.5083 34.0488C62.739 34.0488 61.4239 34.8736 60.5632 36.5234Z" fill="#242A38"/>
<path d="M87.6562 29.0277C89.5929 29.0277 91.0753 29.7092 92.1034 31.072C93.1554 32.4109 93.4782 34.2998 93.0717 36.7386L91.1709 47.462H85.2174L86.9748 37.4917C87.1182 36.5354 86.9867 35.83 86.5803 35.3757C86.1738 34.8975 85.5641 34.6585 84.7512 34.6585C83.8426 34.6585 83.0775 34.9334 82.4559 35.4833C81.8581 36.0333 81.4636 36.8462 81.2723 37.9221V37.8862L79.5867 47.462H73.6332L76.7893 29.5298H82.7428L82.42 31.3589C83.7828 29.8048 85.5282 29.0277 87.6562 29.0277Z" fill="#242A38"/>
<path d="M103.514 47.9641C100.644 47.9641 98.4208 47.0197 96.8428 45.1308C95.2648 43.242 94.6909 40.9108 95.1213 38.1373C95.5517 35.4833 96.7711 33.3076 98.7795 31.61C100.788 29.8885 103.131 29.0277 105.809 29.0277C107.698 29.0277 109.288 29.4581 110.579 30.3189C111.894 31.1557 112.874 32.2914 113.52 33.726L108.104 36.5593C107.578 35.4116 106.646 34.8378 105.307 34.8378C104.255 34.8378 103.322 35.1725 102.509 35.842C101.72 36.5114 101.242 37.3841 101.075 38.4601C100.884 39.536 101.063 40.4207 101.613 41.114C102.187 41.8074 102.976 42.1541 103.98 42.1541C105.367 42.1541 106.478 41.5564 107.315 40.3609L112.049 43.3735C111.141 44.8798 109.933 46.0275 108.427 46.8165C106.921 47.5816 105.283 47.9641 103.514 47.9641Z" fill="#242A38"/>
<path d="M124.372 29.0277C127.073 29.0277 129.189 29.9483 130.72 31.7893C132.25 33.6064 132.776 35.83 132.298 38.4601C132.202 39.1774 131.999 39.9186 131.688 40.6837H119.386C119.721 42.1422 120.869 42.8714 122.829 42.8714C124.264 42.8714 125.447 42.441 126.38 41.5803L130.182 45.0591C128.101 46.9958 125.495 47.9641 122.363 47.9641C119.255 47.9641 116.912 47.0197 115.334 45.1308C113.78 43.242 113.23 40.9108 113.684 38.1373C114.114 35.5072 115.334 33.3315 117.342 31.61C119.351 29.8885 121.694 29.0277 124.372 29.0277ZM120.104 36.5234H126.882C126.762 34.8736 125.818 34.0488 124.049 34.0488C122.279 34.0488 120.964 34.8736 120.104 36.5234Z" fill="#242A38"/>
<path d="M13.7551 48C11.0772 48 8.91342 47.4501 7.26366 46.3502C5.6139 45.2265 4.52601 43.6963 4 41.7596L9.70244 38.8187C10.3719 40.8989 11.9021 41.9389 14.2931 41.9389C16.2537 41.9389 17.3416 41.3651 17.5567 40.2174C17.7002 39.4284 17.1503 38.7709 15.907 38.2449C15.7157 38.1493 14.843 37.8384 13.2889 37.3124C11.0892 36.5712 9.42748 35.567 8.30373 34.2998C7.17998 33.0326 6.80938 31.2992 7.19193 29.0995C7.59839 26.8041 8.68628 25.0229 10.4556 23.7557C12.2488 22.4646 14.3648 21.819 16.8036 21.819C18.9076 21.819 20.7128 22.3211 22.2191 23.3253C23.7493 24.3056 24.8731 25.7163 25.5904 27.5573L20.1031 30.4982C19.3141 28.7528 18.0469 27.8801 16.3015 27.8801C14.7952 27.8801 13.9344 28.418 13.7192 29.494C13.5758 30.0917 13.791 30.5938 14.3648 31.0003C14.9386 31.3828 16.0146 31.8491 17.5926 32.399C18.6924 32.7815 19.5891 33.1402 20.2824 33.4749C20.9758 33.8097 21.6931 34.2998 22.4343 34.9454C23.1994 35.567 23.7135 36.368 23.9765 37.3483C24.2395 38.3047 24.2634 39.4404 24.0482 40.7554C23.6178 43.1224 22.4941 44.9276 20.6769 46.1709C18.8598 47.3903 16.5525 48 13.7551 48Z" stroke="white" stroke-width="6" mask="url(#path-2-outside-1_3_13)"/>
<path d="M34.5167 47.9641C31.6475 47.9641 29.4239 47.0197 27.8459 45.1308C26.2679 43.242 25.694 40.9108 26.1244 38.1373C26.5548 35.4833 27.7742 33.3076 29.7826 31.61C31.791 29.8885 34.1341 29.0277 36.812 29.0277C38.7008 29.0277 40.2908 29.4581 41.582 30.3189C42.897 31.1557 43.8773 32.2914 44.5228 33.726L39.1073 36.5593C38.5813 35.4116 37.6488 34.8378 36.3099 34.8378C35.2579 34.8378 34.3254 35.1725 33.5125 35.842C32.7234 36.5114 32.2453 37.3841 32.0779 38.4601C31.8866 39.536 32.0659 40.4207 32.6159 41.114C33.1897 41.8074 33.9787 42.1541 34.9829 42.1541C36.3697 42.1541 37.4815 41.5564 38.3183 40.3609L43.0524 43.3735C42.1438 44.8798 40.9364 46.0275 39.4301 46.8165C37.9238 47.5816 36.286 47.9641 34.5167 47.9641Z" stroke="white" stroke-width="6" mask="url(#path-2-outside-1_3_13)"/>
<path d="M50.4587 28.0594C49.5262 28.0594 48.773 27.7247 48.1992 27.0552C47.6254 26.3618 47.4221 25.5489 47.5895 24.6164C47.733 23.7079 48.1873 22.9188 48.9524 22.2494C49.7175 21.556 50.5902 21.2093 51.5705 21.2093C52.5268 21.2093 53.28 21.544 53.8299 22.2135C54.4037 22.883 54.607 23.6839 54.4396 24.6164C54.2962 25.5728 53.8419 26.3857 53.0768 27.0552C52.3117 27.7247 51.439 28.0594 50.4587 28.0594ZM44.0031 47.462L47.1591 29.5298H53.1126L49.9566 47.462H44.0031Z" stroke="white" stroke-width="6" mask="url(#path-2-outside-1_3_13)"/>
<path d="M64.831 29.0277C67.5328 29.0277 69.6488 29.9483 71.179 31.7893C72.7093 33.6064 73.2353 35.83 72.7571 38.4601C72.6614 39.1774 72.4582 39.9186 72.1474 40.6837H59.8459C60.1806 42.1422 61.3283 42.8714 63.2889 42.8714C64.7234 42.8714 65.907 42.441 66.8394 41.5803L70.6411 45.0591C68.5609 46.9958 65.9548 47.9641 62.8226 47.9641C59.7144 47.9641 57.3712 47.0197 55.7932 45.1308C54.2391 43.242 53.6892 40.9108 54.1435 38.1373C54.5738 35.5072 55.7932 33.3315 57.8016 31.61C59.81 29.8885 62.1532 29.0277 64.831 29.0277ZM60.5632 36.5234H67.3415C67.222 34.8736 66.2776 34.0488 64.5083 34.0488C62.739 34.0488 61.4239 34.8736 60.5632 36.5234Z" stroke="white" stroke-width="6" mask="url(#path-2-outside-1_3_13)"/>
<path d="M87.6562 29.0277C89.5929 29.0277 91.0753 29.7092 92.1034 31.072C93.1554 32.4109 93.4782 34.2998 93.0717 36.7386L91.1709 47.462H85.2174L86.9748 37.4917C87.1182 36.5354 86.9867 35.83 86.5803 35.3757C86.1738 34.8975 85.5641 34.6585 84.7512 34.6585C83.8426 34.6585 83.0775 34.9334 82.4559 35.4833C81.8581 36.0333 81.4636 36.8462 81.2723 37.9221V37.8862L79.5867 47.462H73.6332L76.7893 29.5298H82.7428L82.42 31.3589C83.7828 29.8048 85.5282 29.0277 87.6562 29.0277Z" stroke="white" stroke-width="6" mask="url(#path-2-outside-1_3_13)"/>
<path d="M103.514 47.9641C100.644 47.9641 98.4208 47.0197 96.8428 45.1308C95.2648 43.242 94.6909 40.9108 95.1213 38.1373C95.5517 35.4833 96.7711 33.3076 98.7795 31.61C100.788 29.8885 103.131 29.0277 105.809 29.0277C107.698 29.0277 109.288 29.4581 110.579 30.3189C111.894 31.1557 112.874 32.2914 113.52 33.726L108.104 36.5593C107.578 35.4116 106.646 34.8378 105.307 34.8378C104.255 34.8378 103.322 35.1725 102.509 35.842C101.72 36.5114 101.242 37.3841 101.075 38.4601C100.884 39.536 101.063 40.4207 101.613 41.114C102.187 41.8074 102.976 42.1541 103.98 42.1541C105.367 42.1541 106.478 41.5564 107.315 40.3609L112.049 43.3735C111.141 44.8798 109.933 46.0275 108.427 46.8165C106.921 47.5816 105.283 47.9641 103.514 47.9641Z" stroke="white" stroke-width="6" mask="url(#path-2-outside-1_3_13)"/>
<path d="M124.372 29.0277C127.073 29.0277 129.189 29.9483 130.72 31.7893C132.25 33.6064 132.776 35.83 132.298 38.4601C132.202 39.1774 131.999 39.9186 131.688 40.6837H119.386C119.721 42.1422 120.869 42.8714 122.829 42.8714C124.264 42.8714 125.447 42.441 126.38 41.5803L130.182 45.0591C128.101 46.9958 125.495 47.9641 122.363 47.9641C119.255 47.9641 116.912 47.0197 115.334 45.1308C113.78 43.242 113.23 40.9108 113.684 38.1373C114.114 35.5072 115.334 33.3315 117.342 31.61C119.351 29.8885 121.694 29.0277 124.372 29.0277ZM120.104 36.5234H126.882C126.762 34.8736 125.818 34.0488 124.049 34.0488C122.279 34.0488 120.964 34.8736 120.104 36.5234Z" stroke="white" stroke-width="6" mask="url(#path-2-outside-1_3_13)"/>
</svg>
